<?xml version="1.0" standalone="no"?>
<!DOCTYPE svg PUBLIC "-//W3C//DTD SVG 20010904//EN"
 "http://www.w3.org/TR/2001/REC-SVG-20010904/DTD/svg10.dtd">
<svg version="1.0" xmlns="http://www.w3.org/2000/svg"
 width="300.000000pt" height="300.000000pt" viewBox="0 0 300.000000 300.000000"
 preserveAspectRatio="xMidYMid meet">
<metadata>
Created by potrace 1.11, written by Peter Selinger 2001-2013
</metadata>
<g transform="translate(0.000000,300.000000) scale(0.100000,-0.100000)"
fill="#000000" stroke="none">
<path d="M1483 2854 c3 -4 -1 -13 -9 -22 -9 -8 -13 -23 -11 -33 3 -10 0 -17
-7 -16 -6 1 -10 -8 -10 -20 1 -13 -2 -20 -7 -17 -11 7 -42 -43 -34 -55 4 -7
-1 -8 -11 -4 -13 5 -16 3 -11 -10 4 -10 2 -16 -5 -14 -6 1 -13 -4 -16 -12 -3
-9 0 -11 8 -6 9 5 11 4 6 -4 -4 -6 -11 -9 -16 -6 -8 5 -25 -23 -22 -37 1 -5
-4 -7 -10 -5 -7 1 -14 -8 -16 -21 -2 -13 -8 -20 -14 -16 -8 5 -9 1 -5 -10 4
-10 3 -15 -3 -11 -5 3 -17 -7 -27 -22 -10 -15 -40 -57 -68 -93 -27 -36 -53
-69 -57 -75 -4 -5 -21 -26 -38 -46 -16 -20 -30 -39 -30 -42 0 -4 -11 -18 -26
-32 -14 -14 -22 -30 -19 -35 4 -6 2 -9 -3 -8 -5 2 -22 -13 -38 -32 -16 -19
-22 -30 -14 -25 8 5 -2 -8 -23 -28 -21 -21 -35 -42 -32 -47 4 -6 -1 -7 -11 -3
-11 4 -15 2 -11 -4 4 -6 0 -13 -8 -17 -8 -3 -15 -12 -15 -20 0 -7 -7 -17 -16
-20 -8 -3 -12 -11 -9 -16 4 -6 1 -9 -5 -8 -7 2 -17 -6 -23 -17 -19 -32 -34
-44 -43 -37 -5 4 0 -4 11 -18 11 -14 13 -19 5 -12 -19 16 -33 15 -27 -2 4 -10
1 -13 -9 -9 -14 5 -20 -12 -6 -20 4 -2 1 -2 -7 0 -13 3 -85 -66 -146 -142 -69
-86 -251 -386 -323 -536 -43 -86 -72 -155 -67 -151 6 3 5 -1 -2 -9 -31 -38
-51 -243 -28 -294 7 -16 22 -51 34 -77 11 -26 21 -51 21 -54 0 -3 27 -41 61
-83 50 -63 78 -87 162 -138 128 -79 277 -136 436 -169 14 -3 28 -7 32 -9 6 -4
35 -10 104 -19 17 -3 41 -7 55 -10 14 -4 64 -8 112 -10 48 -2 92 -7 97 -11 6
-3 11 -2 11 3 0 5 7 9 15 9 8 0 15 -4 15 -8 0 -15 481 -1 564 17 12 3 35 7 51
10 17 2 41 7 55 9 14 3 39 7 55 10 37 6 70 13 70 15 0 1 13 4 28 6 43 7 202
67 300 113 49 22 93 41 98 41 5 0 9 5 9 11 0 5 5 7 10 4 6 -4 30 13 53 37 51
53 97 108 90 108 -2 0 3 7 11 16 9 8 14 20 10 25 -3 5 0 8 7 7 7 -2 19 9 26
25 8 15 19 27 24 27 6 0 7 5 4 10 -4 6 -11 7 -17 4 -7 -4 -8 -2 -4 5 4 6 12 9
17 6 5 -4 10 6 11 22 0 15 3 42 4 58 5 41 5 206 1 225 -2 8 -7 22 -10 30 -4 8
-8 26 -10 40 -4 24 -9 41 -27 85 -4 11 -14 36 -20 55 -11 29 -63 117 -170 285
-48 75 -176 259 -194 278 -12 12 -46 51 -76 87 -30 36 -58 67 -61 70 -3 3 -56
68 -118 145 -61 77 -117 147 -124 155 -7 8 -30 37 -52 65 -22 27 -44 55 -50
61 -5 6 -23 29 -40 50 -16 21 -48 61 -70 89 -22 27 -66 83 -98 124 -31 40 -57
69 -58 65 0 -5 -4 1 -9 14 -5 12 -16 22 -24 22 -10 0 -13 6 -9 16 4 10 -2 17
-17 21 -14 4 -18 8 -10 13 15 9 -4 50 -23 50 -7 0 -6 4 3 10 10 6 11 10 3 10
-7 0 -13 7 -13 15 0 8 -4 15 -10 15 -5 0 -9 3 -9 8 4 21 -3 32 -18 32 -9 0
-14 -3 -10 -6z m-633 -910 c0 -8 -19 -13 -24 -6 -3 5 1 9 9 9 8 0 15 -2 15 -3z"/>
</g>
</svg>
