<?xml version="1.0" standalone="no"?>
<!DOCTYPE svg PUBLIC "-//W3C//DTD SVG 20010904//EN"
 "http://www.w3.org/TR/2001/REC-SVG-20010904/DTD/svg10.dtd">
<svg version="1.0" xmlns="http://www.w3.org/2000/svg"
 width="692.000000pt" height="692.000000pt" viewBox="0 0 692.000000 692.000000"
 preserveAspectRatio="xMidYMid meet">
<metadata>
Created by potrace 1.11, written by Peter Selinger 2001-2013
</metadata>
<g transform="translate(0.000000,692.000000) scale(0.100000,-0.100000)"
fill="#000000" stroke="none">
<path d="M3443 6637 c3 -9 2 -17 -3 -17 -9 0 -26 -39 -22 -52 1 -5 -3 -8 -9
-8 -8 0 -7 -5 1 -15 11 -13 10 -14 -6 -8 -17 6 -18 5 -4 -12 14 -17 13 -18 -3
-12 -15 6 -17 3 -12 -12 3 -11 0 -23 -6 -27 -8 -5 -10 -3 -4 7 7 12 5 12 -6 1
-12 -11 -12 -14 1 -22 12 -8 11 -10 -5 -10 -17 0 -17 -2 -5 -10 13 -8 12 -10
-2 -10 -21 0 -24 -16 -5 -24 6 -3 3 -4 -8 -3 -13 1 -20 -4 -20 -15 0 -9 -4
-20 -8 -24 -10 -10 -9 -26 2 -20 5 4 6 -4 3 -16 -5 -19 -7 -20 -10 -5 -2 9 -7
17 -10 17 -8 0 -36 -41 -37 -53 0 -4 -7 -12 -15 -17 -8 -5 -10 -10 -5 -10 6 0
3 -5 -6 -10 -10 -6 -15 -20 -14 -35 2 -14 0 -23 -4 -20 -12 7 -51 -24 -51 -41
0 -9 5 -12 12 -8 7 4 8 3 4 -4 -4 -6 -13 -9 -21 -5 -13 5 -20 -12 -16 -39 0
-4 -7 -4 -17 -1 -15 6 -16 5 -2 -12 8 -10 10 -16 3 -12 -17 11 -82 -61 -75
-84 1 -5 -2 -9 -8 -9 -5 0 -10 -4 -10 -10 0 -5 8 -7 18 -4 15 5 15 4 -1 -6
-10 -7 -21 -9 -24 -6 -4 3 -14 -6 -24 -22 -10 -15 -26 -38 -36 -52 -16 -23
-15 -23 9 3 15 15 31 27 35 27 4 0 0 -7 -11 -15 -10 -8 -15 -19 -10 -26 4 -8
3 -10 -4 -5 -7 4 -12 3 -12 -2 0 -5 -9 -12 -20 -15 -16 -4 -20 -11 -16 -31 3
-15 1 -24 -5 -21 -5 4 -7 11 -4 16 3 5 -1 6 -9 3 -9 -3 -16 -12 -16 -19 0 -7
-7 -18 -15 -25 -9 -7 -14 -19 -11 -26 3 -8 2 -13 -2 -13 -22 4 -32 -3 -32 -22
0 -13 -4 -18 -12 -13 -8 5 -9 2 -5 -10 4 -9 3 -15 -2 -12 -5 3 -14 -1 -21 -9
-7 -8 -9 -15 -4 -15 5 0 -2 -7 -14 -16 -12 -8 -22 -20 -22 -25 0 -6 -13 -24
-30 -42 -16 -18 -30 -36 -30 -40 0 -4 -9 -17 -20 -29 -11 -12 -20 -28 -20 -35
0 -8 -4 -12 -8 -9 -5 3 -19 -13 -33 -34 -13 -22 -28 -40 -32 -40 -4 0 -2 -10
4 -22 11 -20 10 -21 -2 -11 -12 10 -20 6 -42 -23 -16 -19 -25 -39 -22 -44 4
-6 2 -9 -3 -8 -5 2 -23 -12 -39 -29 -17 -18 -29 -33 -27 -33 1 0 -7 -11 -19
-24 -48 -51 -67 -78 -61 -87 3 -5 -2 -9 -10 -9 -9 0 -16 -4 -16 -8 0 -5 -15
-23 -32 -42 -18 -18 -26 -30 -18 -26 8 4 7 1 -4 -8 -10 -8 -15 -20 -10 -27 4
-7 3 -10 -3 -6 -15 9 -66 -60 -57 -76 6 -9 4 -9 -8 1 -13 10 -17 10 -23 -5 -5
-10 -9 -21 -9 -25 -1 -3 -14 -16 -29 -28 -15 -12 -26 -25 -23 -27 3 -3 -6 -15
-20 -25 -20 -16 -22 -23 -13 -34 9 -12 9 -13 -3 -9 -13 5 -43 -18 -50 -40 -2
-5 -7 -9 -13 -7 -5 2 -1 -7 10 -19 l20 -22 -22 12 c-13 7 -23 8 -23 2 0 -5 6
-12 13 -15 6 -3 1 -4 -12 -3 -14 1 -26 -4 -28 -13 -3 -10 -2 -11 4 -4 6 9 12
8 22 -3 11 -12 11 -14 0 -12 -28 3 -49 -1 -49 -12 0 -5 4 -8 8 -5 5 3 9 -1 9
-8 0 -8 -9 -11 -22 -8 -13 2 -26 -2 -30 -9 -5 -7 -4 -10 2 -6 6 4 13 -3 16
-15 4 -14 3 -18 -4 -11 -11 11 -49 6 -49 -6 1 -14 28 -40 35 -33 5 4 5 2 1 -5
-4 -7 -13 -10 -21 -7 -8 4 -13 9 -10 13 2 4 -2 8 -10 8 -18 0 -19 -9 -4 -24 9
-9 7 -11 -7 -7 -13 3 -31 -8 -57 -36 -21 -22 -31 -37 -21 -33 16 6 17 5 2 -16
-9 -13 -14 -30 -11 -37 6 -17 -13 -19 -23 -2 -4 6 -3 8 2 5 6 -3 11 4 11 16 2
20 1 20 -8 4 -6 -9 -14 -15 -20 -12 -5 4 -6 -2 -2 -11 4 -10 2 -15 -3 -11 -6
3 -11 -4 -11 -15 -2 -19 -1 -19 11 -3 10 14 15 15 21 5 5 -7 4 -11 -1 -8 -12
6 -44 -28 -36 -38 4 -4 2 -4 -5 0 -6 3 -10 15 -8 26 2 12 0 18 -6 14 -6 -3 -8
-8 -5 -11 2 -3 -11 -19 -30 -36 -19 -18 -34 -38 -34 -44 0 -7 -4 -12 -8 -11
-4 2 -20 -9 -35 -24 -28 -28 -36 -45 -15 -32 7 4 8 3 4 -5 -4 -6 -11 -9 -15
-6 -19 11 -241 -249 -324 -380 -42 -66 -81 -127 -87 -135 -6 -8 -28 -42 -49
-75 -21 -33 -80 -126 -132 -207 -52 -81 -113 -178 -137 -215 -52 -82 -184
-343 -174 -343 4 0 2 -4 -4 -8 -5 -4 -31 -48 -56 -98 -36 -71 -44 -94 -35
-104 9 -10 9 -11 -2 -5 -18 10 -33 -15 -19 -32 8 -10 7 -12 -4 -8 -14 6 -23
-9 -26 -39 0 -5 -4 -12 -9 -15 -12 -9 -45 -71 -37 -71 3 0 1 -7 -6 -15 -7 -8
-9 -15 -4 -15 5 0 2 -5 -6 -10 -13 -9 -13 -11 0 -21 13 -9 12 -10 -2 -5 -20 6
-34 -10 -16 -17 8 -3 6 -6 -4 -6 -11 -1 -15 -6 -12 -16 4 -8 1 -15 -6 -15 -7
0 -10 -7 -7 -15 4 -8 2 -17 -4 -20 -14 -9 -7 -39 11 -47 11 -5 8 -7 -8 -7 -13
-1 -20 -5 -17 -11 4 -6 11 -7 17 -4 7 4 8 2 4 -5 -4 -6 -12 -9 -17 -6 -5 4 -9
-6 -10 -22 0 -15 -2 -35 -4 -43 -14 -54 -24 -171 -30 -334 -2 -63 1 -86 16
-113 10 -18 19 -36 20 -41 1 -4 5 -17 10 -30 5 -13 9 -25 9 -27 0 -3 11 -28
24 -58 14 -29 34 -79 46 -110 12 -32 25 -55 30 -52 4 3 6 -4 3 -14 -3 -11 3
-27 15 -39 10 -10 33 -39 50 -63 17 -24 75 -98 129 -163 98 -119 99 -120 244
-206 80 -48 165 -98 190 -111 24 -13 46 -27 49 -30 3 -3 32 -21 65 -39 33 -18
66 -37 73 -43 6 -5 12 -7 12 -3 0 3 17 -1 38 -10 20 -8 44 -17 52 -19 8 -2 28
-8 43 -14 16 -6 33 -9 38 -5 5 3 9 1 9 -4 0 -7 189 -72 220 -77 3 0 10 -3 15
-6 22 -14 146 -40 157 -33 7 4 8 3 4 -4 -5 -8 1 -13 16 -14 13 -1 30 -2 39 -3
9 0 23 -6 31 -13 8 -6 18 -9 21 -5 4 3 12 1 19 -4 7 -6 27 -13 43 -16 17 -3
44 -8 60 -11 79 -17 133 -26 165 -29 20 -2 41 -6 46 -10 6 -3 36 -8 68 -9 31
-2 56 -6 56 -10 0 -5 11 -8 25 -8 14 0 25 6 25 13 0 8 3 8 9 -2 5 -8 16 -16
24 -17 8 -1 25 -5 37 -9 15 -5 20 -4 16 4 -4 6 -2 11 3 11 6 0 11 -4 11 -8 0
-13 33 -11 49 2 10 8 13 8 8 0 -4 -7 8 -11 34 -12 23 -1 45 -4 50 -8 5 -3 9 0
9 6 0 8 6 8 20 0 15 -8 20 -8 20 2 0 9 3 9 8 2 4 -6 34 -10 70 -10 34 1 62 -1
62 -4 0 -3 14 -5 30 -5 17 -1 30 4 30 10 0 5 4 4 9 -4 6 -9 10 -10 16 -2 5 9
10 9 21 1 8 -7 37 -10 69 -8 30 1 55 1 55 -2 0 -3 47 -6 105 -7 77 -1 103 2
98 10 -5 9 -3 9 8 1 8 -6 41 -10 74 -8 33 1 146 5 250 8 315 11 429 16 450 20
11 3 37 5 58 5 21 1 36 4 34 8 -3 5 23 9 57 10 33 1 77 5 96 9 19 3 49 7 67 7
23 1 29 5 22 13 -7 8 -6 15 2 20 8 5 9 3 4 -6 -6 -10 -4 -12 9 -7 10 4 15 3
11 -3 -3 -6 -1 -10 4 -10 6 0 12 5 12 10 1 6 2 14 3 19 0 5 5 13 10 18 5 5 6
3 2 -4 -4 -8 -2 -13 6 -13 9 0 9 -3 -2 -10 -12 -8 -10 -10 8 -10 13 0 20 4 17
10 -4 7 3 9 20 6 20 -4 25 -1 21 9 -3 9 0 12 9 8 8 -3 13 -9 10 -13 -3 -4 15
-2 39 5 24 8 48 10 52 7 4 -4 4 2 0 12 -5 15 -4 17 7 8 10 -9 19 -7 37 5 13 9
20 11 16 5 -4 -7 -1 -12 8 -12 9 0 16 4 16 9 0 4 11 6 25 3 14 -2 25 0 25 6 0
6 9 8 20 5 11 -3 20 -1 20 5 0 6 10 8 22 4 15 -3 19 -2 14 7 -6 8 -1 10 18 5
13 -3 31 -2 38 2 7 5 21 10 31 11 10 2 30 9 45 16 15 8 48 20 75 27 26 7 47
15 47 19 0 3 12 7 26 8 15 0 30 7 35 15 5 7 9 10 9 6 0 -7 73 16 135 43 17 7
32 13 35 13 3 1 67 32 142 69 75 37 142 67 148 67 6 0 8 5 4 12 -4 7 -3 8 4 4
6 -4 30 2 54 14 23 11 48 20 55 20 7 0 13 5 13 11 0 5 4 8 9 4 5 -3 16 2 25
10 8 9 18 16 21 15 27 -1 35 2 29 11 -4 8 1 9 17 4 21 -7 22 -6 11 8 -11 13
-10 15 5 13 19 -4 30 6 81 71 19 24 31 47 28 52 -4 5 -1 13 5 17 8 5 9 3 4 -6
-5 -8 -3 -11 4 -9 7 3 13 9 13 14 0 6 9 16 19 23 13 9 17 22 15 47 -2 19 0 33
4 30 5 -3 7 -14 5 -25 -5 -27 6 -25 29 7 13 17 14 24 5 19 -8 -4 5 9 29 29 24
21 42 45 42 57 0 12 3 19 6 15 3 -3 12 -1 19 6 10 9 9 14 -4 24 -14 10 -13 11
7 6 18 -4 24 -1 29 16 3 11 9 21 14 21 5 0 9 5 9 11 0 5 -5 7 -12 3 -7 -4 -8
-3 -4 5 4 6 11 9 15 6 5 -2 16 4 26 15 10 11 14 20 9 20 -5 0 -1 5 9 11 13 8
15 14 7 23 -7 10 -6 17 7 27 16 13 17 12 4 -3 -8 -12 -9 -18 -2 -18 13 0 26
45 16 59 -3 6 -1 11 5 11 6 0 8 5 5 10 -4 6 -11 7 -17 4 -7 -4 -8 -2 -4 5 4 6
11 9 16 6 4 -3 10 9 12 25 3 17 0 30 -6 30 -8 0 -7 3 0 8 6 4 11 24 10 45 0
20 2 37 6 37 8 0 5 21 -6 39 -6 10 -5 12 2 7 8 -5 12 1 13 16 0 13 2 33 5 46
3 17 1 21 -8 16 -10 -6 -10 -5 -2 7 17 20 18 287 1 307 -9 13 -9 14 1 8 7 -4
12 -1 12 8 0 9 -6 16 -12 16 -10 0 -9 3 1 9 9 6 10 11 2 15 -6 4 -9 12 -6 17
4 5 1 9 -5 9 -6 0 -9 4 -6 9 7 11 -23 152 -37 169 -6 8 -5 12 4 12 9 1 8 5 -5
15 -11 8 -15 15 -9 15 8 0 8 7 0 25 -7 14 -16 25 -20 25 -5 0 -6 4 -3 9 3 4
-23 83 -59 174 -65 167 -64 165 -285 512 -61 96 -206 312 -409 610 -58 85
-178 237 -309 388 -118 136 -293 345 -388 465 -96 119 -180 224 -187 232 -7 8
-39 49 -72 90 -33 41 -68 84 -77 95 -118 144 -599 749 -735 925 -24 30 -58 73
-77 95 -30 36 -35 38 -52 25 -16 -11 -17 -12 -6 0 6 8 12 20 12 28 0 7 -6 12
-12 9 -7 -2 -12 -10 -10 -16 1 -7 -2 -10 -8 -6 -8 5 -7 11 1 21 6 8 8 18 4 22
-4 4 -10 1 -12 -6 -3 -6 -9 -9 -14 -6 -6 3 -4 11 5 17 11 8 13 17 6 27 -8 12
-10 12 -15 -2 -4 -10 -13 -14 -22 -11 -12 5 -14 3 -8 -7 5 -9 4 -11 -4 -6 -14
9 -5 26 15 26 8 0 14 5 14 11 0 6 -7 8 -16 5 -13 -5 -14 -4 -6 7 9 10 7 19 -8
34 -10 12 -16 24 -12 29 4 4 -1 4 -11 1 -11 -4 -16 -3 -12 4 12 19 -5 58 -33
74 -26 15 -26 16 -2 10 17 -4 21 -3 12 3 -8 5 -14 13 -14 18 -2 22 -29 74 -39
74 -5 0 -7 5 -4 10 3 6 2 10 -4 10 -6 0 -8 6 -5 14 3 8 -3 23 -13 33 -11 11
-18 24 -15 31 2 6 -7 21 -19 33 -19 19 -23 20 -31 5 -5 -9 -14 -16 -21 -16 -8
0 -8 3 -2 8 6 4 19 17 29 30 15 18 16 22 4 22 -8 0 -20 -10 -26 -22 -6 -13
-11 -17 -11 -10 -1 6 7 20 17 30 16 16 17 20 3 32 -13 12 -14 12 -8 -3z m40
-92 c-3 -9 -8 -14 -10 -11 -3 3 -2 9 2 15 9 16 15 13 8 -4z m95 -177 c8 -10
11 -18 6 -18 -10 0 -44 52 -44 67 0 4 6 -1 12 -12 6 -11 18 -28 26 -37z m-228
12 c0 -5 -2 -10 -4 -10 -3 0 -8 5 -11 10 -3 6 -1 10 4 10 6 0 11 -4 11 -10z
m-60 -80 c0 -5 -5 -10 -11 -10 -5 0 -7 5 -4 10 3 6 8 10 11 10 2 0 4 -4 4 -10z
m320 4 c0 -8 -19 -13 -24 -6 -3 5 1 9 9 9 8 0 15 -2 15 -3z m6 -31 c-2 -9 -11
-17 -20 -19 -17 -2 -17 -2 0 17 21 23 23 23 20 2z m-368 -58 c-3 -3 -9 2 -12
12 -6 14 -5 15 5 6 7 -7 10 -15 7 -18z m382 11 c0 -3 -4 -8 -10 -11 -5 -3 -10
-1 -10 4 0 6 5 11 10 11 6 0 10 -2 10 -4z m35 -35 c-3 -3 -10 1 -15 9 -8 13
-10 13 -10 1 0 -8 -3 -12 -6 -8 -3 3 -3 11 1 17 5 8 11 8 21 -1 8 -6 12 -14 9
-18z m-458 -27 c-3 -3 -12 -4 -19 -1 -8 3 -5 6 6 6 11 1 17 -2 13 -5z m-97
-138 c0 -3 -4 -8 -10 -11 -5 -3 -10 -1 -10 4 0 6 5 11 10 11 6 0 10 -2 10 -4z
m-26 -32 c3 -8 2 -12 -4 -9 -6 3 -10 10 -10 16 0 14 7 11 14 -7z m-50 -70 c3
-8 2 -12 -4 -9 -6 3 -10 10 -10 16 0 14 7 11 14 -7z m-107 -149 c0 -8 -4 -12
-9 -9 -5 3 -6 10 -3 15 9 13 12 11 12 -6z m-267 -349 c0 -2 -8 -10 -17 -17
-16 -13 -17 -12 -4 4 13 16 21 21 21 13z m-311 -419 c-2 -1 -13 -9 -24 -17
-19 -14 -19 -14 -6 3 7 9 18 17 24 17 6 0 8 -1 6 -3z m-64 -87 c3 -6 -1 -7 -9
-4 -18 7 -21 14 -7 14 6 0 13 -4 16 -10z m-62 -44 c4 -10 1 -13 -8 -9 -8 3
-12 9 -9 14 7 12 11 11 17 -5z m-3 -31 c0 -2 -6 -8 -13 -14 -10 -8 -14 -7 -14
2 0 8 6 14 14 14 7 0 13 -1 13 -2z m-43 -31 c-3 -3 -12 -4 -19 -1 -8 3 -5 6 6
6 11 1 17 -2 13 -5z m-24 -35 c-8 -8 -13 -7 -18 2 -5 8 -4 10 3 5 7 -4 12 -2
12 5 0 7 3 9 7 6 4 -4 2 -12 -4 -18z m32 1 c3 -5 1 -10 -4 -10 -6 0 -11 5 -11
10 0 6 2 10 4 10 3 0 8 -4 11 -10z m-50 -20 c3 -6 -1 -7 -9 -4 -18 7 -21 14
-7 14 6 0 13 -4 16 -10z m-29 -45 c1 -8 -3 -18 -8 -22 -7 -3 -8 -1 -4 5 4 7 0
12 -11 13 -17 1 -17 2 0 6 10 3 14 10 11 16 -4 7 -3 8 1 4 5 -4 10 -14 11 -22z
m-78 -124 c-7 -9 -13 -18 -15 -20 -1 -2 -1 5 0 16 0 11 7 20 14 20 10 0 10 -4
1 -16z m-40 -36 c-3 -3 -9 2 -12 12 -6 14 -5 15 5 6 7 -7 10 -15 7 -18z m-38
-25 c0 -5 -2 -10 -4 -10 -3 0 -8 5 -11 10 -3 6 -1 10 4 10 6 0 11 -4 11 -10z
m-54 -68 c1 -7 0 -8 -3 -2 -2 5 -9 10 -14 10 -6 0 -8 -4 -4 -9 3 -5 1 -12 -5
-16 -6 -4 -8 -11 -5 -16 3 -5 -2 -6 -11 -2 -13 5 -15 3 -9 -7 5 -9 4 -11 -4
-6 -12 8 -8 19 17 49 17 19 34 18 38 -1z m-52 -70 c3 -5 -1 -9 -9 -9 -8 0 -12
4 -9 9 3 4 7 8 9 8 2 0 6 -4 9 -8z m-54 -86 c0 -3 -4 -8 -10 -11 -5 -3 -10 -1
-10 4 0 6 5 11 10 11 6 0 10 -2 10 -4z m-64 -31 c1 -9 -4 -11 -14 -8 -11 5
-13 3 -7 -7 5 -9 4 -11 -3 -6 -9 5 -9 13 -1 27 11 21 21 19 25 -6z m-11 -55
c3 -6 -1 -7 -9 -4 -18 7 -21 14 -7 14 6 0 13 -4 16 -10z m-1191 -1818 c3 -5
-1 -9 -9 -9 -8 0 -12 4 -9 9 3 4 7 8 9 8 2 0 6 -4 9 -8z m-50 -100 c3 -5 -1
-9 -9 -9 -8 0 -12 4 -9 9 3 4 7 8 9 8 2 0 6 -4 9 -8z m-19 -42 c3 -6 -1 -7 -9
-4 -18 7 -21 14 -7 14 6 0 13 -4 16 -10z m5915 -894 c0 -2 -7 -7 -16 -10 -8
-3 -12 -2 -9 4 6 10 25 14 25 6z m-276 -324 c3 -5 -1 -9 -9 -9 -8 0 -12 4 -9
9 3 4 7 8 9 8 2 0 6 -4 9 -8z m-34 -82 c0 -5 -8 -10 -17 -10 -15 0 -16 2 -3
10 19 12 20 12 20 0z m-1351 -533 c0 -9 -2 -8 -6 1 -2 6 -10 9 -15 6 -7 -4 -8
-2 -4 5 9 13 26 5 25 -12z m-205 -33 c3 -8 2 -12 -4 -9 -6 3 -10 10 -10 16 0
14 7 11 14 -7z m-99 -13 c3 -5 2 -12 -3 -15 -5 -3 -9 1 -9 9 0 17 3 19 12 6z
m-1375 -35 c0 -3 -4 -8 -10 -11 -5 -3 -10 -1 -10 4 0 6 5 11 10 11 6 0 10 -2
10 -4z"/>
<path d="M3200 6209 c0 -5 5 -7 10 -4 6 3 10 8 10 11 0 2 -4 4 -10 4 -5 0 -10
-5 -10 -11z"/>
</g>
</svg>
